<svg width="14" height="14" viewBox="0 0 14 14" fill="none" xmlns="http://www.w3.org/2000/svg">
<path d="M7 0C3.13542 0 0 3.13542 0 7C0 10.8646 3.13542 14 7 14C10.8646 14 14 10.8646 14 7C14 3.13542 10.8646 0 7 0ZM10.6021 5.30833L6.48958 9.43542C6.35833 9.56667 6.16875 9.65417 5.97917 9.65417C5.78958 9.65417 5.6 9.58125 5.46875 9.43542L3.39792 7.36458C3.10625 7.07292 3.10625 6.62083 3.39792 6.32917C3.68958 6.0375 4.14167 6.0375 4.43333 6.32917L5.97917 7.875L9.58125 4.27292C9.87292 3.98125 10.325 3.98125 10.6167 4.27292C10.8938 4.56458 10.8937 5.01667 10.6021 5.30833Z" fill="white"/>
</svg>
